HIERARCHY
ROOT Hips
{
  OFFSET 0.000000 0.000000 0.000000
  CHANNELS 6 Xposition Yposition Zposition Xrotation Yrotation Zrotation
  JOINT Spine
  {
    OFFSET 1.388230 22.849755 -8.157144
    CHANNELS 3 Xrotation Yrotation Zrotation
    JOINT Chest
    {
      OFFSET 1.388230 22.849755 -8.157144
      CHANNELS 3 Xrotation Yrotation Zrotation
      JOINT Neck
      {
        OFFSET 0.386562 8.498444 -3.690407
        CHANNELS 3 Xrotation Yrotation Zrotation
        JOINT Head
        {
          OFFSET 0.662911 7.396516 -7.447500
          CHANNELS 3 Xrotation Yrotation Zrotation
          End Site
          {
            OFFSET 0.198873 2.218955 -2.234250
          }
        }
      }
      JOINT LeftShoulder
      {
        OFFSET 17.248308 -1.208605 -0.261267
        CHANNELS 3 Xrotation Yrotation Zrotation
        JOINT LeftArm
        {
          OFFSET 7.635523 -21.435821 1.774202
          CHANNELS 3 Xrotation Yrotation Zrotation
          JOINT LeftForeArm
          {
            OFFSET 7.643843 -21.327462 -9.147581
            CHANNELS 3 Xrotation Yrotation Zrotation
            JOINT LeftHand
            {
              OFFSET 0.473402 -5.275506 -2.178749
              CHANNELS 3 Xrotation Yrotation Zrotation
              End Site
              {
                OFFSET 0.142021 -1.582652 -0.653625
              }
            }
          }
        }
      }
      JOINT RightShoulder
      {
        OFFSET -17.248308 1.208605 0.261267
        CHANNELS 3 Xrotation Yrotation Zrotation
        JOINT RightArm
        {
          OFFSET -12.133127 -21.363330 5.693170
          CHANNELS 3 Xrotation Yrotation Zrotation
          JOINT RightForeArm
          {
            OFFSET -7.740244 -22.047532 -5.230031
            CHANNELS 3 Xrotation Yrotation Zrotation
            JOINT RightHand
            {
              OFFSET -0.480044 -5.557554 -1.525311
              CHANNELS 3 Xrotation Yrotation Zrotation
              End Site
              {
                OFFSET -0.144013 -1.667266 -0.457593
              }
            }
          }
        }
      }
    }
  }
  JOINT LeftUpLeg
  {
    OFFSET 11.699587 -0.675443 -0.599665
    CHANNELS 3 Xrotation Yrotation Zrotation
    JOINT LeftLeg
    {
      OFFSET -6.527727 -38.483662 1.737457
      CHANNELS 3 Xrotation Yrotation Zrotation
      JOINT LeftFoot
      {
        OFFSET 3.065902 -35.809878 12.679608
        CHANNELS 3 Xrotation Yrotation Zrotation
        End Site
        {
          OFFSET 0.919771 -10.742963 3.803882
        }
      }
    }
  }
  JOINT RightUpLeg
  {
    OFFSET -11.699587 0.675443 0.599665
    CHANNELS 3 Xrotation Yrotation Zrotation
    JOINT RightLeg
    {
      OFFSET -1.173808 -37.981520 -1.210152
      CHANNELS 3 Xrotation Yrotation Zrotation
      JOINT RightFoot
      {
        OFFSET -7.846448 -39.021816 7.691272
        CHANNELS 3 Xrotation Yrotation Zrotation
        End Site
        {
          OFFSET -2.353934 -11.706545 2.307382
        }
      }
    }
  }
}
MOTION
Frames: 15
Frame Time: 0.083333
-3.569313 59.990204 -11.555628 -3.192085 -0.431179 -1.600441 -3.192085 -0.431179 -1.600441 -1.716235 1.732166 3.310185 -1.788531 2.831820 2.366305 5.000000 0.000000 0.000000 6.165846 2.642407 21.899379 0.735350 0.676189 -1.380204 76.090655 -26.618519 18.967636 0.000000 0.000000 0.000000 13.872593 -12.581044 -56.727975 26.687413 0.722595 -5.606929 126.233916 -9.877169 -5.396870 0.000000 0.000000 0.000000 2.527690 -0.412439 0.556284 -2.170641 -0.919989 -1.947477 0.000000 0.000000 0.000000 14.149377 1.187506 -10.388623 -0.471756 0.820948 3.586675 0.000000 0.000000 0.000000
-3.336961 59.990275 -10.516918 -0.785184 -0.345056 -1.073131 -0.785184 -0.345056 -1.073131 -1.047113 1.532049 3.129334 -1.206428 2.641953 2.328830 5.000000 0.000000 0.000000 3.844617 2.272122 21.440631 -1.550374 0.345351 -1.086647 76.225099 -27.690413 19.594428 0.000000 0.000000 0.000000 19.628490 -12.486444 -54.885972 27.549133 -0.683695 -2.561566 6.057370 30.239313 -76.388745 0.000000 0.000000 0.000000 1.513639 -0.203286 1.362673 -1.550491 -0.792442 -1.776489 0.000000 0.000000 0.000000 13.046594 1.090062 -10.173498 -0.999754 0.842033 3.081958 0.000000 0.000000 0.000000
-3.174440 59.990250 -9.686736 2.111725 -0.440193 -0.931339 2.111725 -0.440193 -0.931339 -0.428005 1.435749 3.133058 -0.622264 2.626401 2.445493 5.000000 0.000000 0.000000 2.404672 1.963205 20.134802 -2.357295 0.176879 -0.829868 51.401921 -31.620469 34.710607 0.000000 0.000000 0.000000 18.686159 -11.979723 -49.263572 19.852388 -1.174231 -0.651111 -15.961102 11.370077 -77.892910 0.000000 0.000000 0.000000 0.059501 0.113472 2.775761 -1.031215 -0.449779 -0.976864 0.000000 0.000000 0.000000 11.288638 0.942460 -9.850969 -0.979904 0.849521 3.135352 0.000000 0.000000 0.000000
-2.996210 59.989647 -8.809339 4.372211 -0.551233 -0.920437 4.372211 -0.551233 -0.920437 -0.466118 1.438239 3.125446 -0.755843 2.646312 2.434058 5.000000 0.000000 0.000000 0.110810 1.388912 17.393226 -5.144065 -0.161058 -0.534590 34.444053 -32.883825 46.495500 0.000000 0.000000 0.000000 11.632121 -10.095644 -36.994846 11.302730 -0.614340 -0.728107 -40.094639 -3.018033 -37.861325 0.000000 0.000000 0.000000 0.419602 0.091088 3.992758 -0.054227 0.024229 0.092930 0.000000 0.000000 0.000000 10.043688 0.851710 -9.682800 -1.483119 1.089417 3.713807 0.000000 0.000000 0.000000
-2.814467 59.989460 -8.096789 6.182053 -0.622642 -0.854027 6.182053 -0.622642 -0.854027 -0.389633 1.438584 3.151994 -0.849630 2.555864 2.329401 5.000000 0.000000 0.000000 -0.257730 1.015779 13.491407 -5.483635 -0.284588 -0.273157 23.094609 -32.498751 53.865683 0.000000 0.000000 0.000000 5.577338 -6.726697 -20.631818 3.815643 0.262718 -2.109656 -59.200363 -4.242458 -23.628421 0.000000 0.000000 0.000000 1.372716 -0.080609 4.603788 0.758385 0.363468 0.859827 0.000000 0.000000 0.000000 9.092953 0.793770 -9.606460 -1.872032 1.299290 4.250664 0.000000 0.000000 0.000000
-2.685215 59.989355 -7.476388 6.373826 -0.564434 -0.626300 6.373826 -0.564434 -0.626300 -0.617419 1.491059 3.187327 -1.171165 2.399575 2.114244 5.000000 0.000000 0.000000 -0.389022 0.821139 11.432194 -5.558208 -0.289517 -0.272763 20.789713 -32.340701 55.354127 0.000000 0.000000 0.000000 2.729141 -4.143071 -11.881576 0.761754 0.763481 -3.480379 -61.464520 -2.370445 -16.792905 0.000000 0.000000 0.000000 1.260344 -0.058613 4.562463 0.612039 0.484208 1.241487 0.000000 0.000000 0.000000 6.299939 0.621595 -9.339195 -2.077845 1.482721 4.860644 0.000000 0.000000 0.000000
-2.739759 59.991034 -7.035746 5.772854 -0.458531 -0.377076 5.772854 -0.458531 -0.377076 -0.951354 1.572861 3.247506 -1.474481 2.302175 1.962653 5.000000 0.000000 0.000000 -0.898422 0.702189 11.380349 -5.112474 -0.200278 -0.421965 35.864340 -32.670512 45.286684 0.000000 0.000000 0.000000 1.167346 -2.679744 -8.653670 1.762768 0.830750 -3.916563 -56.337286 -3.347873 -22.273967 0.000000 0.000000 0.000000 0.844380 0.023126 4.420154 0.863713 0.510401 1.264557 0.000000 0.000000 0.000000 4.952914 0.517953 -8.798677 -1.553913 1.365836 4.924413 0.000000 0.000000 0.000000
-2.963527 59.992371 -6.617613 4.158901 -0.372838 -0.372912 4.158901 -0.372838 -0.372912 -1.535772 1.671623 3.250711 -1.998884 2.259111 1.821376 5.000000 0.000000 0.000000 -2.992245 0.426521 13.473588 -4.329683 0.014569 -0.821652 21.013442 -31.217562 53.586817 0.000000 0.000000 0.000000 -0.962874 -0.551252 -4.078860 2.484877 0.907479 -4.394858 -60.843359 -0.041024 -9.658676 0.000000 0.000000 0.000000 0.594461 0.070938 4.293606 0.756274 0.617494 1.601619 0.000000 0.000000 0.000000 3.566866 0.371216 -7.857190 -0.195720 1.053119 5.065119 0.000000 0.000000 0.000000
-3.100779 59.994058 -5.753372 0.514944 -0.323922 -0.807509 0.514944 -0.323922 -0.807509 -2.912391 1.882939 3.213735 -3.194386 2.257230 1.593735 5.000000 0.000000 0.000000 -5.753025 0.364524 18.351858 -3.495120 0.345878 -1.426899 42.069178 -31.595802 40.051863 0.000000 0.000000 0.000000 -1.007024 -0.000183 -2.081122 -2.145854 1.123426 -4.795484 -62.389132 -0.629488 -11.253793 0.000000 0.000000 0.000000 2.321516 -0.287042 4.343585 1.415792 0.855471 2.166654 0.000000 0.000000 0.000000 7.997139 0.465301 -7.082002 0.600616 0.991828 5.739656 0.000000 0.000000 0.000000
-2.993356 59.994823 -4.301647 -3.408759 -0.371869 -1.474956 -3.408759 -0.371869 -1.474956 -3.748753 1.927670 3.043453 -3.856517 1.938493 1.216217 5.000000 0.000000 0.000000 -4.804356 1.539473 27.017776 0.306134 1.169137 -2.496790 79.677099 -22.479588 15.325896 0.000000 0.000000 0.000000 0.247401 -0.658878 -1.987075 -2.130459 1.139956 -4.886386 -62.763267 -1.549738 -13.936676 0.000000 0.000000 0.000000 3.649779 -0.564634 4.326026 1.772028 1.130221 2.904061 0.000000 0.000000 0.000000 11.796169 0.540392 -6.686979 -0.251767 1.254424 5.967813 0.000000 0.000000 0.000000
-2.742599 59.996053 -1.894065 -4.401147 -0.797976 -2.651546 -4.401147 -0.797976 -2.651546 -3.693902 1.538904 2.403126 -3.677931 1.068269 0.562258 5.000000 0.000000 0.000000 -2.796962 2.502319 36.098848 2.149209 2.029038 -3.788986 104.301780 -0.443285 5.084215 0.000000 0.000000 0.000000 0.536950 -0.837172 -2.072408 -0.630898 1.042425 -4.582467 -53.976322 -7.060998 -36.875188 0.000000 0.000000 0.000000 3.581806 -0.551045 4.295774 0.846869 1.473282 4.043851 0.000000 0.000000 0.000000 11.078156 0.499430 -6.529949 -0.878288 1.376710 5.786872 0.000000 0.000000 0.000000
-2.599815 59.998232 0.547329 -5.258832 -1.396669 -4.204682 -5.258832 -1.396669 -4.204682 -4.265256 0.929657 1.232905 -4.025237 0.153547 -0.194587 5.000000 0.000000 0.000000 1.992199 3.287496 45.126212 4.909979 2.822625 -4.650312 106.204770 12.274668 3.710857 0.000000 0.000000 0.000000 0.834365 -1.278005 -3.165901 0.852591 0.945020 -4.307221 -38.413992 -4.496656 -50.979991 0.000000 0.000000 0.000000 3.296469 -0.494711 4.122089 -1.139593 1.629089 4.744978 0.000000 0.000000 0.000000 11.301684 0.499472 -6.484003 -2.409358 1.667322 5.339637 0.000000 0.000000 0.000000
-2.450548 59.999397 1.959072 -5.582230 -1.870541 -5.370966 -5.582230 -1.870541 -5.370966 -4.621427 0.377416 0.253730 -4.511219 -0.406888 -0.666484 5.000000 0.000000 0.000000 4.541546 3.334447 51.598303 5.044319 2.838775 -4.661360 105.703847 12.119933 3.641168 0.000000 0.000000 0.000000 0.380789 -1.720976 -5.954033 0.233946 0.866935 -3.866327 -39.181540 -12.762913 -78.716048 0.000000 0.000000 0.000000 3.317022 -0.503355 3.773431 -3.190440 1.468048 4.537894 0.000000 0.000000 0.000000 12.014224 0.533801 -6.607517 -4.922546 2.130666 4.607259 0.000000 0.000000 0.000000
-2.278582 60.000041 1.698671 -5.703290 -2.388544 -6.640096 -5.703290 -2.388544 -6.640096 -4.639680 -0.063656 -0.481492 -4.558214 -0.727717 -0.915250 5.000000 0.000000 0.000000 10.740874 2.602489 55.318682 9.612903 2.912140 -3.845893 114.172722 14.234519 5.083191 0.000000 0.000000 0.000000 1.041997 -2.865761 -9.575114 -0.810448 0.789672 -3.347058 -22.007357 6.713411 -86.272919 0.000000 0.000000 0.000000 4.767045 -0.795420 3.200130 -3.867758 1.189858 3.869108 0.000000 0.000000 0.000000 13.395325 0.511060 -6.115881 -6.072370 2.220436 3.836162 0.000000 0.000000 0.000000
-2.203215 60.000585 1.171288 -4.998396 -2.619172 -7.209794 -4.998396 -2.619172 -7.209794 -4.312929 -0.364778 -0.970433 -4.259339 -0.897589 -1.035105 5.000000 0.000000 0.000000 19.025948 1.377630 56.143742 17.953453 2.918586 -2.302790 116.897911 14.018941 5.622401 0.000000 0.000000 0.000000 3.396652 -4.845176 -14.142760 -0.901218 0.586685 -2.369960 -3.924227 23.976496 -79.576229 0.000000 0.000000 0.000000 8.960218 -1.621778 2.952287 -1.844809 0.972627 3.039459 0.000000 0.000000 0.000000 12.139845 0.444551 -5.522619 -8.140192 2.666421 3.637466 0.000000 0.000000 0.000000
